<?xml version="1.0" encoding="UTF-8" standalone="no"?>
<svg
   width="16"
   height="16"
   version="1.1"
   id="svg4"
   sodipodi:docname="folder-music-symbolic.svg"
   inkscape:version="1.1.2 (0a00cf5339, 2022-02-04)"
   xmlns:inkscape="http://www.inkscape.org/namespaces/inkscape"
   xmlns:sodipodi="http://sodipodi.sourceforge.net/DTD/sodipodi-0.dtd"
   xmlns="http://www.w3.org/2000/svg"
   xmlns:svg="http://www.w3.org/2000/svg">
  <defs
     id="defs8" />
  <sodipodi:namedview
     id="namedview6"
     pagecolor="#ffffff"
     bordercolor="#666666"
     borderopacity="1.0"
     inkscape:pageshadow="2"
     inkscape:pageopacity="0.0"
     inkscape:pagecheckerboard="0"
     showgrid="false"
     inkscape:zoom="51.8125"
     inkscape:cx="8.0096502"
     inkscape:cy="8"
     inkscape:window-width="1920"
     inkscape:window-height="1008"
     inkscape:window-x="0"
     inkscape:window-y="0"
     inkscape:window-maximized="1"
     inkscape:current-layer="svg4" />
  <path
     style="fill:#57b8ec;fill-opacity:1"
     d="M 5,1 C 5,1 5,1 5,2 V 9.19 C 4.68,9.07 4.36,9 4,9 2.34,9 1,10.34 1,12 1,13.66 2.34,15 4,15 5.66,15 7,13.66 7,12 V 5 H 13 V 9.19 C 12.68,9.07 12.36,9 12,9 10.34,9 9,10.34 9,12 9,13.66 10.34,15 12,15 13.66,15 15,13.66 15,12 V 1 C 15,1 15,1 14,1 Z"
     id="path2" />
</svg>
